<?xml version="1.0" encoding="utf-8"?>
<!-- Generator: Adobe Illustrator 17.1.0, SVG Export Plug-In . SVG Version: 6.00 Build 0)  -->
<!DOCTYPE svg PUBLIC "-//W3C//DTD SVG 1.1//EN" "http://www.w3.org/Graphics/SVG/1.1/DTD/svg11.dtd">
<svg version="1.1" id="Layer_2" xmlns="http://www.w3.org/2000/svg" xmlns:xlink="http://www.w3.org/1999/xlink" x="0px" y="0px"
	 viewBox="19.7 111.5 570.2 570.2" style="enable-background:new 19.7 111.5 570.2 570.2;" xml:space="preserve">
<style type="text/css">
	.st0{fill:#1C75BC;stroke:#000000;stroke-width:3;stroke-miterlimit:10;}
	.st1{fill:none;stroke:#F8F2F5;stroke-width:5;stroke-miterlimit:10;}
	.st2{fill:#F9ED32;stroke:#000000;stroke-width:2;stroke-miterlimit:10;}
	.st3{fill:#FFDE17;stroke:#000000;stroke-width:2;stroke-miterlimit:10;}
	.st4{fill:#F1F2F2;stroke:#000000;stroke-miterlimit:10;}
	.st5{fill:#FFFFFF;}
	.st6{fill:#F7941E;stroke:#000000;stroke-width:2;stroke-miterlimit:10;}
</style>
<circle class="st0" cx="304.8" cy="396.6" r="284.6"/>
<ellipse transform="matrix(1.951518e-02 -0.9998 0.9998 1.951518e-02 -97.7074 693.5765)" class="st1" cx="304.8" cy="396.6" rx="264.4" ry="265"/>
<path class="st2" d="M495.7,393.6c12.2,71-2.4,93-51.4,116.3c-38.6,18.4-80.8,18.4-208.1,11c-43.5-9.2-104.9-45.1-57.2-89.1
	c36.3-39.7-38.3-8.8-23.6-29c-30,3.7-73.1-48.1-24.7-28.5c0,0,41.8-13.7,35.1-27.2c-25.9-28.2-12.3-109.4,64.3-115.2
	c76.7,2.6,96.1,72.4,69.8,115.2c-15.3,19.6-6.1,15.3,4.3,11c22-9.2,73.4-41.6,141.4,0C461.4,374,511,277.9,495.7,393.6z"/>
<path class="st3" d="M450.4,399.7c1.8,3.7-1.8,33-33.7,50.2c15.3,19-24.5,21.4-19.6,23.9c-5.5,23.3-44.7,1.8-54.5-1.8
	c-9.8-4.9-26.3-6.7-36.1-9.2c-31.2-4.9-51.4-28.8-22-49C298,403.3,358.6,359.9,450.4,399.7z"/>
<g>
	
		<ellipse transform="matrix(1.951518e-02 -0.9998 0.9998 1.951518e-02 -112.4644 529.2112)" class="st4" cx="213.6" cy="321.9" rx="17.7" ry="16.5"/>
	
		<ellipse transform="matrix(1.951518e-02 -0.9998 0.9998 1.951518e-02 -116.6854 527.3477)" cx="210.5" cy="323.2" rx="9.8" ry="9.2"/>
	<circle class="st5" cx="209.9" cy="321.3" r="2.4"/>
</g>
<path class="st6" d="M166.2,347.3c6.7-13.5,3.9,7.7,18,11.4c11.6,3.7,14.7,15.3,14.1,24.5c-0.6,9.8,3.1,25.8-9.2,33
	c-2.4-14.9-43.1,1.8-33.3-13.2c-31.8,1.8-73.2-48-25.1-28.8C130.7,374.9,170.5,362,166.2,347.3z"/>
</svg>
